<svg width="49" height="36" viewBox="0 0 49 36" fill="none" xmlns="http://www.w3.org/2000/svg">
<path fill-rule="evenodd" clip-rule="evenodd" d="M35.6832 27.6323C35.2458 27.277 35 26.7952 35 26.2928C35 25.7905 35.2458 25.3087 35.6832 24.9534L43.3674 18.7148L35.6832 12.4761C35.2582 12.1188 35.0229 11.6402 35.0283 11.1435C35.0336 10.6468 35.279 10.1716 35.7116 9.82033C36.1443 9.46908 36.7296 9.26983 37.3414 9.26551C37.9532 9.2612 38.5427 9.45215 38.9828 9.79726L48.3168 17.3753C48.7542 17.7306 49 18.2124 49 18.7148C49 19.2171 48.7542 19.6989 48.3168 20.0542L38.9828 27.6323C38.5452 27.9874 37.9518 28.187 37.333 28.187C36.7142 28.187 36.1208 27.9874 35.6832 27.6323Z" fill="black"/>
<path fill-rule="evenodd" clip-rule="evenodd" d="M13.3168 9.82013C13.7542 10.1754 14 10.6572 14 11.1596C14 11.6619 13.7542 12.1437 13.3168 12.499L5.63257 18.7376L13.3168 24.9763C13.7418 25.3336 13.9771 25.8122 13.9717 26.3089C13.9664 26.8056 13.721 27.2808 13.2884 27.6321C12.8557 27.9833 12.2704 28.1826 11.6586 28.1869C11.0468 28.1912 10.4573 28.0002 10.0172 27.6551L0.683217 20.0771C0.245754 19.7218 0 19.24 0 18.7376C0 18.2353 0.245754 17.7535 0.683217 17.3982L10.0172 9.82013C10.4548 9.46496 11.0482 9.26544 11.667 9.26544C12.2858 9.26544 12.8792 9.46496 13.3168 9.82013Z" fill="black"/>
<rect width="8.62482" height="36.9643" rx="4.31241" transform="matrix(0.905408 0.424543 -0.484385 0.874855 30.4578 0)" fill="black"/>
<path d="M21.6001 15.8128L29.5676 19.4789" stroke="white" stroke-width="3"/>
</svg>
